<svg xmlns="http://www.w3.org/2000/svg" xmlns:xlink="http://www.w3.org/1999/xlink" width="516" zoomAndPan="magnify" viewBox="0 0 386.88 323.999988" height="432" preserveAspectRatio="xMidYMid meet" version="1.0"><defs><clipPath id="a28e191957"><path d="M 348 119 L 386.128906 119 L 386.128906 205 L 348 205 Z M 348 119 " clip-rule="nonzero"/></clipPath><clipPath id="540b5f56ad"><path d="M 207 0.0507812 L 246 0.0507812 L 246 323.949219 L 207 323.949219 Z M 207 0.0507812 " clip-rule="nonzero"/></clipPath><clipPath id="1fce647260"><path d="M 348 119 L 386.128906 119 L 386.128906 205 L 348 205 Z M 348 119 " clip-rule="nonzero"/></clipPath><clipPath id="7f0c343e0d"><path d="M 207 0.0507812 L 246 0.0507812 L 246 323.949219 L 207 323.949219 Z M 207 0.0507812 " clip-rule="nonzero"/></clipPath></defs><path fill="#ffffff" d="M 19.050781 204.59375 C 8.703125 204.59375 0.320312 196.214844 0.320312 185.875 L 0.320312 138.125 C 0.320312 127.785156 8.703125 119.40625 19.050781 119.40625 C 29.386719 119.40625 37.777344 127.785156 37.777344 138.125 L 37.777344 185.875 C 37.777344 196.214844 29.386719 204.59375 19.050781 204.59375 " fill-opacity="1" fill-rule="nonzero"/><path fill="#ffffff" d="M 85.519531 265.925781 C 75.183594 265.925781 66.800781 257.535156 66.800781 247.199219 L 66.800781 76.800781 C 66.800781 66.464844 75.183594 58.074219 85.519531 58.074219 C 95.867188 58.074219 104.246094 66.464844 104.246094 76.800781 L 104.246094 247.199219 C 104.246094 257.535156 95.867188 265.925781 85.519531 265.925781 " fill-opacity="1" fill-rule="nonzero"/><path fill="#ffffff" d="M 152 213.964844 L 151.988281 213.964844 C 141.652344 213.964844 133.269531 205.582031 133.269531 195.234375 L 133.269531 128.765625 C 133.269531 118.417969 141.652344 110.035156 151.988281 110.035156 L 152 110.035156 C 162.335938 110.035156 170.71875 118.417969 170.71875 128.765625 L 170.71875 195.234375 C 170.71875 205.582031 162.335938 213.964844 152 213.964844 " fill-opacity="1" fill-rule="nonzero"/><g clip-path="url(#a28e191957)"><path fill="#ffffff" d="M 367.332031 119.40625 C 377.675781 119.40625 386.058594 127.785156 386.058594 138.125 L 386.058594 185.875 C 386.058594 196.214844 377.675781 204.59375 367.332031 204.59375 C 356.992188 204.59375 348.601562 196.214844 348.601562 185.875 L 348.601562 138.125 C 348.601562 127.785156 356.992188 119.40625 367.332031 119.40625 " fill-opacity="1" fill-rule="nonzero"/></g><path fill="#ffffff" d="M 300.859375 70.71875 C 311.195312 70.71875 319.578125 79.101562 319.578125 89.445312 L 319.578125 234.554688 C 319.578125 244.898438 311.195312 253.28125 300.859375 253.28125 C 290.515625 253.28125 282.132812 244.898438 282.132812 234.554688 L 282.132812 89.445312 C 282.132812 79.101562 290.515625 70.71875 300.859375 70.71875 " fill-opacity="1" fill-rule="nonzero"/><g clip-path="url(#540b5f56ad)"><path fill="#ffffff" d="M 226.425781 323.972656 C 216.085938 323.972656 207.695312 315.582031 207.695312 305.246094 L 207.695312 18.753906 C 207.695312 8.417969 216.085938 0.0273438 226.425781 0.0273438 C 236.769531 0.0273438 245.152344 8.417969 245.152344 18.753906 L 245.152344 305.246094 C 245.152344 315.582031 236.769531 323.972656 226.425781 323.972656 " fill-opacity="1" fill-rule="nonzero"/></g><path fill="#ffffff" d="M 19.050781 204.59375 C 8.703125 204.59375 0.320312 196.214844 0.320312 185.875 L 0.320312 138.125 C 0.320312 127.785156 8.703125 119.40625 19.050781 119.40625 C 29.386719 119.40625 37.777344 127.785156 37.777344 138.125 L 37.777344 185.875 C 37.777344 196.214844 29.386719 204.59375 19.050781 204.59375 " fill-opacity="1" fill-rule="nonzero"/><path fill="#ffffff" d="M 85.519531 265.925781 C 75.183594 265.925781 66.800781 257.535156 66.800781 247.199219 L 66.800781 76.800781 C 66.800781 66.464844 75.183594 58.074219 85.519531 58.074219 C 95.867188 58.074219 104.246094 66.464844 104.246094 76.800781 L 104.246094 247.199219 C 104.246094 257.535156 95.867188 265.925781 85.519531 265.925781 " fill-opacity="1" fill-rule="nonzero"/><path fill="#ffffff" d="M 152 213.964844 L 151.988281 213.964844 C 141.652344 213.964844 133.269531 205.582031 133.269531 195.234375 L 133.269531 128.765625 C 133.269531 118.417969 141.652344 110.035156 151.988281 110.035156 L 152 110.035156 C 162.335938 110.035156 170.71875 118.417969 170.71875 128.765625 L 170.71875 195.234375 C 170.71875 205.582031 162.335938 213.964844 152 213.964844 " fill-opacity="1" fill-rule="nonzero"/><g clip-path="url(#1fce647260)"><path fill="#ffffff" d="M 367.332031 119.40625 C 377.675781 119.40625 386.058594 127.785156 386.058594 138.125 L 386.058594 185.875 C 386.058594 196.214844 377.675781 204.59375 367.332031 204.59375 C 356.992188 204.59375 348.601562 196.214844 348.601562 185.875 L 348.601562 138.125 C 348.601562 127.785156 356.992188 119.40625 367.332031 119.40625 " fill-opacity="1" fill-rule="nonzero"/></g><path fill="#ffffff" d="M 300.859375 70.71875 C 311.195312 70.71875 319.578125 79.101562 319.578125 89.445312 L 319.578125 234.554688 C 319.578125 244.898438 311.195312 253.28125 300.859375 253.28125 C 290.515625 253.28125 282.132812 244.898438 282.132812 234.554688 L 282.132812 89.445312 C 282.132812 79.101562 290.515625 70.71875 300.859375 70.71875 " fill-opacity="1" fill-rule="nonzero"/><g clip-path="url(#7f0c343e0d)"><path fill="#ffffff" d="M 226.425781 323.972656 C 216.085938 323.972656 207.695312 315.582031 207.695312 305.246094 L 207.695312 18.753906 C 207.695312 8.417969 216.085938 0.0273438 226.425781 0.0273438 C 236.769531 0.0273438 245.152344 8.417969 245.152344 18.753906 L 245.152344 305.246094 C 245.152344 315.582031 236.769531 323.972656 226.425781 323.972656 " fill-opacity="1" fill-rule="nonzero"/></g></svg>